<mxfile host="app.diagrams.net" modified="2023-10-05T23:25:43.047Z" agent="Mozilla/5.0 (Windows NT 10.0; Win64; x64) AppleWebKit/537.36 (KHTML, like Gecko) Chrome/117.0.0.0 Safari/537.36 Edg/117.0.2045.55" etag="MOF-EJsIw1Q3bzbDqu5n" version="22.0.2" type="google">
  <diagram id="R2lEEEUBdFMjLlhIrx00" name="Page-1">
    <mxGraphModel grid="1" page="1" gridSize="10" guides="1" tooltips="1" connect="1" arrows="1" fold="1" pageScale="1" pageWidth="850" pageHeight="1100" math="0" shadow="0" extFonts="Permanent Marker^https://fonts.googleapis.com/css?family=Permanent+Marker">
      <root>
        <mxCell id="0" />
        <mxCell id="1" parent="0" />
        <mxCell id="ArILgMwtwmy9WLDL9m9M-1" value="Clínicas" style="whiteSpace=wrap;html=1;align=center;" vertex="1" parent="1">
          <mxGeometry x="210" y="160" width="100" height="40" as="geometry" />
        </mxCell>
        <mxCell id="ArILgMwtwmy9WLDL9m9M-4" value="Especialistas Técnicos" style="whiteSpace=wrap;html=1;align=center;" vertex="1" parent="1">
          <mxGeometry x="370" y="590" width="100" height="40" as="geometry" />
        </mxCell>
        <mxCell id="ArILgMwtwmy9WLDL9m9M-5" value="Médicos" style="whiteSpace=wrap;html=1;align=center;" vertex="1" parent="1">
          <mxGeometry x="220" y="590" width="100" height="40" as="geometry" />
        </mxCell>
        <mxCell id="ArILgMwtwmy9WLDL9m9M-6" value="Modelos" style="whiteSpace=wrap;html=1;align=center;" vertex="1" parent="1">
          <mxGeometry x="630" y="595" width="100" height="40" as="geometry" />
        </mxCell>
        <mxCell id="ArILgMwtwmy9WLDL9m9M-7" value="Pacientes" style="whiteSpace=wrap;html=1;align=center;" vertex="1" parent="1">
          <mxGeometry x="630" y="326.25" width="100" height="40" as="geometry" />
        </mxCell>
        <mxCell id="ArILgMwtwmy9WLDL9m9M-10" value="Diagnóstica" style="shape=rhombus;perimeter=rhombusPerimeter;whiteSpace=wrap;html=1;align=center;" vertex="1" parent="1">
          <mxGeometry x="620" y="450" width="120" height="60" as="geometry" />
        </mxCell>
        <mxCell id="ArILgMwtwmy9WLDL9m9M-11" value="Trabalha" style="shape=rhombus;perimeter=rhombusPerimeter;whiteSpace=wrap;html=1;align=center;" vertex="1" parent="1">
          <mxGeometry x="200" y="240" width="120" height="60" as="geometry" />
        </mxCell>
        <mxCell id="ArILgMwtwmy9WLDL9m9M-12" value="Funcionários" style="whiteSpace=wrap;html=1;align=center;" vertex="1" parent="1">
          <mxGeometry x="210" y="330" width="100" height="40" as="geometry" />
        </mxCell>
        <mxCell id="ArILgMwtwmy9WLDL9m9M-13" value="Especialistas" style="whiteSpace=wrap;html=1;align=center;" vertex="1" parent="1">
          <mxGeometry x="300" y="460" width="100" height="40" as="geometry" />
        </mxCell>
        <mxCell id="ArILgMwtwmy9WLDL9m9M-15" value="Atendentes" style="whiteSpace=wrap;html=1;align=center;" vertex="1" parent="1">
          <mxGeometry x="110" y="460" width="100" height="40" as="geometry" />
        </mxCell>
        <mxCell id="ArILgMwtwmy9WLDL9m9M-20" value="" style="endArrow=none;html=1;rounded=0;exitX=0.5;exitY=1;exitDx=0;exitDy=0;entryX=0.5;entryY=0;entryDx=0;entryDy=0;" edge="1" parent="1" source="ArILgMwtwmy9WLDL9m9M-1" target="ArILgMwtwmy9WLDL9m9M-11">
          <mxGeometry relative="1" as="geometry">
            <mxPoint x="370" y="117.5" as="sourcePoint" />
            <mxPoint x="370" y="177.5" as="targetPoint" />
          </mxGeometry>
        </mxCell>
        <mxCell id="ArILgMwtwmy9WLDL9m9M-21" value="1" style="resizable=0;html=1;whiteSpace=wrap;align=right;verticalAlign=bottom;" connectable="0" vertex="1" parent="ArILgMwtwmy9WLDL9m9M-20">
          <mxGeometry x="1" relative="1" as="geometry" />
        </mxCell>
        <mxCell id="ArILgMwtwmy9WLDL9m9M-23" value="" style="endArrow=none;html=1;rounded=0;entryX=0.5;entryY=0;entryDx=0;entryDy=0;exitX=0.5;exitY=1;exitDx=0;exitDy=0;" edge="1" parent="1" source="ArILgMwtwmy9WLDL9m9M-11" target="ArILgMwtwmy9WLDL9m9M-12">
          <mxGeometry relative="1" as="geometry">
            <mxPoint x="410" y="230" as="sourcePoint" />
            <mxPoint x="310" y="200" as="targetPoint" />
          </mxGeometry>
        </mxCell>
        <mxCell id="ArILgMwtwmy9WLDL9m9M-24" value="N" style="resizable=0;html=1;whiteSpace=wrap;align=right;verticalAlign=bottom;" connectable="0" vertex="1" parent="ArILgMwtwmy9WLDL9m9M-23">
          <mxGeometry x="1" relative="1" as="geometry" />
        </mxCell>
        <mxCell id="ArILgMwtwmy9WLDL9m9M-26" value="d" style="ellipse;whiteSpace=wrap;html=1;aspect=fixed;" vertex="1" parent="1">
          <mxGeometry x="245" y="400" width="30" height="30" as="geometry" />
        </mxCell>
        <mxCell id="ArILgMwtwmy9WLDL9m9M-28" value="" style="endArrow=none;html=1;rounded=0;exitX=0.5;exitY=0;exitDx=0;exitDy=0;shape=link;" edge="1" parent="1" source="ArILgMwtwmy9WLDL9m9M-26" target="ArILgMwtwmy9WLDL9m9M-12">
          <mxGeometry width="50" height="50" relative="1" as="geometry">
            <mxPoint x="410" y="440" as="sourcePoint" />
            <mxPoint x="460" y="390" as="targetPoint" />
          </mxGeometry>
        </mxCell>
        <mxCell id="ArILgMwtwmy9WLDL9m9M-29" value="" style="endArrow=none;html=1;rounded=0;entryX=0;entryY=1;entryDx=0;entryDy=0;exitX=0.5;exitY=0;exitDx=0;exitDy=0;" edge="1" parent="1" source="ArILgMwtwmy9WLDL9m9M-15" target="ArILgMwtwmy9WLDL9m9M-26">
          <mxGeometry width="50" height="50" relative="1" as="geometry">
            <mxPoint x="410" y="510" as="sourcePoint" />
            <mxPoint x="460" y="460" as="targetPoint" />
          </mxGeometry>
        </mxCell>
        <mxCell id="ArILgMwtwmy9WLDL9m9M-30" value="" style="endArrow=none;html=1;rounded=0;entryX=1;entryY=1;entryDx=0;entryDy=0;exitX=0.5;exitY=0;exitDx=0;exitDy=0;" edge="1" parent="1" source="ArILgMwtwmy9WLDL9m9M-13" target="ArILgMwtwmy9WLDL9m9M-26">
          <mxGeometry width="50" height="50" relative="1" as="geometry">
            <mxPoint x="410" y="510" as="sourcePoint" />
            <mxPoint x="360" y="410" as="targetPoint" />
          </mxGeometry>
        </mxCell>
        <mxCell id="ArILgMwtwmy9WLDL9m9M-31" value="d" style="ellipse;whiteSpace=wrap;html=1;aspect=fixed;" vertex="1" parent="1">
          <mxGeometry x="335" y="530" width="30" height="30" as="geometry" />
        </mxCell>
        <mxCell id="ArILgMwtwmy9WLDL9m9M-32" value="" style="endArrow=none;html=1;rounded=0;entryX=0.5;entryY=1;entryDx=0;entryDy=0;exitX=0.5;exitY=0;exitDx=0;exitDy=0;shape=link;" edge="1" parent="1" source="ArILgMwtwmy9WLDL9m9M-31" target="ArILgMwtwmy9WLDL9m9M-13">
          <mxGeometry width="50" height="50" relative="1" as="geometry">
            <mxPoint x="360" y="470" as="sourcePoint" />
            <mxPoint x="281" y="436" as="targetPoint" />
          </mxGeometry>
        </mxCell>
        <mxCell id="ArILgMwtwmy9WLDL9m9M-33" value="" style="endArrow=none;html=1;rounded=0;entryX=0.5;entryY=0;entryDx=0;entryDy=0;exitX=0;exitY=1;exitDx=0;exitDy=0;" edge="1" parent="1" source="ArILgMwtwmy9WLDL9m9M-31" target="ArILgMwtwmy9WLDL9m9M-5">
          <mxGeometry width="50" height="50" relative="1" as="geometry">
            <mxPoint x="360" y="470" as="sourcePoint" />
            <mxPoint x="281" y="436" as="targetPoint" />
          </mxGeometry>
        </mxCell>
        <mxCell id="ArILgMwtwmy9WLDL9m9M-34" value="" style="endArrow=none;html=1;rounded=0;entryX=0.5;entryY=0;entryDx=0;entryDy=0;exitX=1;exitY=1;exitDx=0;exitDy=0;" edge="1" parent="1" source="ArILgMwtwmy9WLDL9m9M-31" target="ArILgMwtwmy9WLDL9m9M-4">
          <mxGeometry width="50" height="50" relative="1" as="geometry">
            <mxPoint x="349" y="566" as="sourcePoint" />
            <mxPoint x="280" y="600" as="targetPoint" />
          </mxGeometry>
        </mxCell>
        <mxCell id="ArILgMwtwmy9WLDL9m9M-36" value="" style="endArrow=none;html=1;rounded=0;exitX=0.5;exitY=1;exitDx=0;exitDy=0;entryX=0.5;entryY=0;entryDx=0;entryDy=0;" edge="1" parent="1" source="ArILgMwtwmy9WLDL9m9M-10" target="ArILgMwtwmy9WLDL9m9M-6">
          <mxGeometry relative="1" as="geometry">
            <mxPoint x="680" y="580" as="sourcePoint" />
            <mxPoint x="710" y="550" as="targetPoint" />
          </mxGeometry>
        </mxCell>
        <mxCell id="ArILgMwtwmy9WLDL9m9M-37" value="K" style="resizable=0;html=1;whiteSpace=wrap;align=right;verticalAlign=bottom;" connectable="0" vertex="1" parent="ArILgMwtwmy9WLDL9m9M-36">
          <mxGeometry x="1" relative="1" as="geometry" />
        </mxCell>
        <mxCell id="ArILgMwtwmy9WLDL9m9M-38" value="" style="endArrow=none;html=1;rounded=0;exitX=1;exitY=0.5;exitDx=0;exitDy=0;entryX=0;entryY=0.5;entryDx=0;entryDy=0;" edge="1" parent="1" source="ArILgMwtwmy9WLDL9m9M-13" target="ArILgMwtwmy9WLDL9m9M-10">
          <mxGeometry relative="1" as="geometry">
            <mxPoint x="470" y="480" as="sourcePoint" />
            <mxPoint x="660" y="490" as="targetPoint" />
          </mxGeometry>
        </mxCell>
        <mxCell id="ArILgMwtwmy9WLDL9m9M-39" value="M" style="resizable=0;html=1;whiteSpace=wrap;align=right;verticalAlign=bottom;" connectable="0" vertex="1" parent="ArILgMwtwmy9WLDL9m9M-38">
          <mxGeometry x="1" relative="1" as="geometry" />
        </mxCell>
        <mxCell id="ArILgMwtwmy9WLDL9m9M-40" value="" style="endArrow=none;html=1;rounded=0;exitX=0.5;exitY=1;exitDx=0;exitDy=0;entryX=0.5;entryY=0;entryDx=0;entryDy=0;" edge="1" parent="1" source="ArILgMwtwmy9WLDL9m9M-7" target="ArILgMwtwmy9WLDL9m9M-10">
          <mxGeometry relative="1" as="geometry">
            <mxPoint x="580" y="476.25" as="sourcePoint" />
            <mxPoint x="680" y="436.25" as="targetPoint" />
          </mxGeometry>
        </mxCell>
        <mxCell id="ArILgMwtwmy9WLDL9m9M-41" value="N" style="resizable=0;html=1;whiteSpace=wrap;align=right;verticalAlign=bottom;" connectable="0" vertex="1" parent="ArILgMwtwmy9WLDL9m9M-40">
          <mxGeometry x="1" relative="1" as="geometry" />
        </mxCell>
        <mxCell id="ArILgMwtwmy9WLDL9m9M-42" value="Nome" style="ellipse;whiteSpace=wrap;html=1;align=center;" vertex="1" parent="1">
          <mxGeometry x="560" y="91.25" width="60" height="30" as="geometry" />
        </mxCell>
        <mxCell id="ArILgMwtwmy9WLDL9m9M-50" style="rounded=0;orthogonalLoop=1;jettySize=auto;html=1;exitX=0.5;exitY=1;exitDx=0;exitDy=0;entryX=0.25;entryY=0;entryDx=0;entryDy=0;endArrow=none;endFill=0;" edge="1" parent="1" source="ArILgMwtwmy9WLDL9m9M-43" target="6052EXO_UDTHAHXL64vF-7">
          <mxGeometry relative="1" as="geometry">
            <mxPoint x="424" y="78.75" as="targetPoint" />
          </mxGeometry>
        </mxCell>
        <mxCell id="ArILgMwtwmy9WLDL9m9M-43" value="Data de nascimento" style="ellipse;whiteSpace=wrap;html=1;align=center;" vertex="1" parent="1">
          <mxGeometry x="374" y="51.25" width="90" height="40" as="geometry" />
        </mxCell>
        <mxCell id="ArILgMwtwmy9WLDL9m9M-51" style="rounded=0;orthogonalLoop=1;jettySize=auto;html=1;exitX=0.5;exitY=1;exitDx=0;exitDy=0;entryX=0;entryY=0.25;entryDx=0;entryDy=0;endArrow=none;endFill=0;" edge="1" parent="1" source="ArILgMwtwmy9WLDL9m9M-44" target="6052EXO_UDTHAHXL64vF-7">
          <mxGeometry relative="1" as="geometry">
            <mxPoint x="424" y="98.75" as="targetPoint" />
          </mxGeometry>
        </mxCell>
        <mxCell id="ArILgMwtwmy9WLDL9m9M-44" value="Telefone" style="ellipse;whiteSpace=wrap;html=1;align=center;" vertex="1" parent="1">
          <mxGeometry x="344" y="91.25" width="60" height="30" as="geometry" />
        </mxCell>
        <mxCell id="ArILgMwtwmy9WLDL9m9M-46" value="RG" style="ellipse;whiteSpace=wrap;html=1;align=center;fontStyle=4;" vertex="1" parent="1">
          <mxGeometry x="459" y="31.25" width="50" height="30" as="geometry" />
        </mxCell>
        <mxCell id="ArILgMwtwmy9WLDL9m9M-47" value="CPF" style="ellipse;whiteSpace=wrap;html=1;align=center;fontStyle=4;" vertex="1" parent="1">
          <mxGeometry x="514" y="56.25" width="50" height="30" as="geometry" />
        </mxCell>
        <mxCell id="ArILgMwtwmy9WLDL9m9M-64" style="rounded=0;orthogonalLoop=1;jettySize=auto;html=1;exitX=0;exitY=0.5;exitDx=0;exitDy=0;entryX=1;entryY=0;entryDx=0;entryDy=0;endArrow=none;endFill=0;" edge="1" parent="1" source="ArILgMwtwmy9WLDL9m9M-48" target="ArILgMwtwmy9WLDL9m9M-49">
          <mxGeometry relative="1" as="geometry" />
        </mxCell>
        <mxCell id="ArILgMwtwmy9WLDL9m9M-48" value="Logradouro" style="ellipse;whiteSpace=wrap;html=1;align=center;" vertex="1" parent="1">
          <mxGeometry x="916" y="297.75" width="70" height="30" as="geometry" />
        </mxCell>
        <mxCell id="ArILgMwtwmy9WLDL9m9M-52" style="rounded=0;orthogonalLoop=1;jettySize=auto;html=1;entryX=1;entryY=0.5;entryDx=0;entryDy=0;endArrow=none;endFill=0;exitX=0;exitY=0.5;exitDx=0;exitDy=0;" edge="1" parent="1" source="ArILgMwtwmy9WLDL9m9M-49" target="ArILgMwtwmy9WLDL9m9M-7">
          <mxGeometry relative="1" as="geometry">
            <mxPoint x="530" y="113.75" as="targetPoint" />
            <mxPoint x="800" y="346.25" as="sourcePoint" />
          </mxGeometry>
        </mxCell>
        <mxCell id="ArILgMwtwmy9WLDL9m9M-49" value="Endereço" style="ellipse;whiteSpace=wrap;html=1;align=center;" vertex="1" parent="1">
          <mxGeometry x="825" y="331.25" width="70" height="30" as="geometry" />
        </mxCell>
        <mxCell id="ArILgMwtwmy9WLDL9m9M-53" value="" style="endArrow=none;html=1;rounded=0;exitX=0.5;exitY=0;exitDx=0;exitDy=0;entryX=0.5;entryY=1;entryDx=0;entryDy=0;" edge="1" parent="1" source="6052EXO_UDTHAHXL64vF-7" target="ArILgMwtwmy9WLDL9m9M-46">
          <mxGeometry relative="1" as="geometry">
            <mxPoint x="569" y="146.25" as="sourcePoint" />
            <mxPoint x="749" y="186.25" as="targetPoint" />
          </mxGeometry>
        </mxCell>
        <mxCell id="ArILgMwtwmy9WLDL9m9M-54" value="" style="endArrow=none;html=1;rounded=0;exitX=0.75;exitY=0;exitDx=0;exitDy=0;entryX=0.5;entryY=1;entryDx=0;entryDy=0;" edge="1" parent="1" source="6052EXO_UDTHAHXL64vF-7" target="ArILgMwtwmy9WLDL9m9M-47">
          <mxGeometry relative="1" as="geometry">
            <mxPoint x="569" y="166.25" as="sourcePoint" />
            <mxPoint x="749" y="186.25" as="targetPoint" />
          </mxGeometry>
        </mxCell>
        <mxCell id="ArILgMwtwmy9WLDL9m9M-55" value="" style="endArrow=none;html=1;rounded=0;exitX=1;exitY=0.25;exitDx=0;exitDy=0;entryX=0.5;entryY=1;entryDx=0;entryDy=0;" edge="1" parent="1" source="6052EXO_UDTHAHXL64vF-7" target="ArILgMwtwmy9WLDL9m9M-42">
          <mxGeometry relative="1" as="geometry">
            <mxPoint x="569" y="186.25" as="sourcePoint" />
            <mxPoint x="749" y="186.25" as="targetPoint" />
          </mxGeometry>
        </mxCell>
        <mxCell id="ArILgMwtwmy9WLDL9m9M-65" style="rounded=0;orthogonalLoop=1;jettySize=auto;html=1;exitX=0;exitY=0.5;exitDx=0;exitDy=0;entryX=1;entryY=0.5;entryDx=0;entryDy=0;endArrow=none;endFill=0;" edge="1" parent="1" source="ArILgMwtwmy9WLDL9m9M-57" target="ArILgMwtwmy9WLDL9m9M-49">
          <mxGeometry relative="1" as="geometry" />
        </mxCell>
        <mxCell id="ArILgMwtwmy9WLDL9m9M-57" value="Bairro" style="ellipse;whiteSpace=wrap;html=1;align=center;" vertex="1" parent="1">
          <mxGeometry x="925" y="331.25" width="70" height="30" as="geometry" />
        </mxCell>
        <mxCell id="ArILgMwtwmy9WLDL9m9M-66" style="rounded=0;orthogonalLoop=1;jettySize=auto;html=1;exitX=0;exitY=0.5;exitDx=0;exitDy=0;entryX=1;entryY=1;entryDx=0;entryDy=0;endArrow=none;endFill=0;" edge="1" parent="1" source="ArILgMwtwmy9WLDL9m9M-58" target="ArILgMwtwmy9WLDL9m9M-49">
          <mxGeometry relative="1" as="geometry" />
        </mxCell>
        <mxCell id="ArILgMwtwmy9WLDL9m9M-58" value="Cidade" style="ellipse;whiteSpace=wrap;html=1;align=center;" vertex="1" parent="1">
          <mxGeometry x="916" y="365.75" width="70" height="30" as="geometry" />
        </mxCell>
        <mxCell id="ArILgMwtwmy9WLDL9m9M-63" style="rounded=0;orthogonalLoop=1;jettySize=auto;html=1;exitX=0;exitY=0.5;exitDx=0;exitDy=0;entryX=0.5;entryY=0;entryDx=0;entryDy=0;endArrow=none;endFill=0;" edge="1" parent="1" source="ArILgMwtwmy9WLDL9m9M-59" target="ArILgMwtwmy9WLDL9m9M-49">
          <mxGeometry relative="1" as="geometry" />
        </mxCell>
        <mxCell id="ArILgMwtwmy9WLDL9m9M-59" value="Número" style="ellipse;whiteSpace=wrap;html=1;align=center;" vertex="1" parent="1">
          <mxGeometry x="895" y="263.75" width="70" height="30" as="geometry" />
        </mxCell>
        <mxCell id="ArILgMwtwmy9WLDL9m9M-67" style="rounded=0;orthogonalLoop=1;jettySize=auto;html=1;exitX=0;exitY=0.5;exitDx=0;exitDy=0;entryX=0.5;entryY=1;entryDx=0;entryDy=0;endArrow=none;endFill=0;" edge="1" parent="1" source="ArILgMwtwmy9WLDL9m9M-60" target="ArILgMwtwmy9WLDL9m9M-49">
          <mxGeometry relative="1" as="geometry" />
        </mxCell>
        <mxCell id="ArILgMwtwmy9WLDL9m9M-60" value="Estado" style="ellipse;whiteSpace=wrap;html=1;align=center;" vertex="1" parent="1">
          <mxGeometry x="905" y="398.75" width="70" height="30" as="geometry" />
        </mxCell>
        <mxCell id="ArILgMwtwmy9WLDL9m9M-61" style="edgeStyle=orthogonalEdgeStyle;rounded=0;orthogonalLoop=1;jettySize=auto;html=1;exitX=0.5;exitY=1;exitDx=0;exitDy=0;" edge="1" parent="1" source="ArILgMwtwmy9WLDL9m9M-48" target="ArILgMwtwmy9WLDL9m9M-48">
          <mxGeometry relative="1" as="geometry" />
        </mxCell>
        <mxCell id="ArILgMwtwmy9WLDL9m9M-68" value="CRM" style="ellipse;whiteSpace=wrap;html=1;align=center;fontStyle=4;" vertex="1" parent="1">
          <mxGeometry x="130" y="595" width="60" height="30" as="geometry" />
        </mxCell>
        <mxCell id="ArILgMwtwmy9WLDL9m9M-69" value="" style="endArrow=none;html=1;rounded=0;exitX=1;exitY=0.5;exitDx=0;exitDy=0;entryX=0;entryY=0.5;entryDx=0;entryDy=0;" edge="1" parent="1" source="ArILgMwtwmy9WLDL9m9M-68" target="ArILgMwtwmy9WLDL9m9M-5">
          <mxGeometry relative="1" as="geometry">
            <mxPoint x="340" y="540" as="sourcePoint" />
            <mxPoint x="500" y="540" as="targetPoint" />
          </mxGeometry>
        </mxCell>
        <mxCell id="ArILgMwtwmy9WLDL9m9M-70" value="Prediz" style="shape=rhombus;perimeter=rhombusPerimeter;whiteSpace=wrap;html=1;align=center;" vertex="1" parent="1">
          <mxGeometry x="620" y="680" width="120" height="60" as="geometry" />
        </mxCell>
        <mxCell id="ArILgMwtwmy9WLDL9m9M-71" value="Doenças" style="whiteSpace=wrap;html=1;align=center;" vertex="1" parent="1">
          <mxGeometry x="630" y="780" width="100" height="40" as="geometry" />
        </mxCell>
        <mxCell id="ArILgMwtwmy9WLDL9m9M-73" value="" style="endArrow=none;html=1;rounded=0;exitX=0.5;exitY=1;exitDx=0;exitDy=0;entryX=0.5;entryY=0;entryDx=0;entryDy=0;" edge="1" parent="1" source="ArILgMwtwmy9WLDL9m9M-70" target="ArILgMwtwmy9WLDL9m9M-71">
          <mxGeometry relative="1" as="geometry">
            <mxPoint x="370" y="850" as="sourcePoint" />
            <mxPoint x="680" y="820" as="targetPoint" />
          </mxGeometry>
        </mxCell>
        <mxCell id="ArILgMwtwmy9WLDL9m9M-74" value="1" style="resizable=0;html=1;whiteSpace=wrap;align=right;verticalAlign=bottom;" connectable="0" vertex="1" parent="ArILgMwtwmy9WLDL9m9M-73">
          <mxGeometry x="1" relative="1" as="geometry" />
        </mxCell>
        <mxCell id="ArILgMwtwmy9WLDL9m9M-77" value="Nome" style="ellipse;whiteSpace=wrap;html=1;align=center;" vertex="1" parent="1">
          <mxGeometry x="715" y="850" width="60" height="30" as="geometry" />
        </mxCell>
        <mxCell id="ArILgMwtwmy9WLDL9m9M-78" value="Id_doença" style="ellipse;whiteSpace=wrap;html=1;align=center;fontStyle=4;" vertex="1" parent="1">
          <mxGeometry x="590" y="850" width="80" height="30" as="geometry" />
        </mxCell>
        <mxCell id="ArILgMwtwmy9WLDL9m9M-81" value="Nome" style="ellipse;whiteSpace=wrap;html=1;align=center;" vertex="1" parent="1">
          <mxGeometry x="760" y="550" width="60" height="30" as="geometry" />
        </mxCell>
        <mxCell id="ArILgMwtwmy9WLDL9m9M-83" value="Métricas" style="ellipse;whiteSpace=wrap;html=1;align=center;" vertex="1" parent="1">
          <mxGeometry x="800" y="600" width="60" height="30" as="geometry" />
        </mxCell>
        <mxCell id="ArILgMwtwmy9WLDL9m9M-84" value="Versão" style="ellipse;whiteSpace=wrap;html=1;align=center;" vertex="1" parent="1">
          <mxGeometry x="760" y="650" width="60" height="30" as="geometry" />
        </mxCell>
        <mxCell id="ArILgMwtwmy9WLDL9m9M-86" value="Id_modelo" style="ellipse;whiteSpace=wrap;html=1;align=center;fontStyle=4;" vertex="1" parent="1">
          <mxGeometry x="530" y="600" width="80" height="30" as="geometry" />
        </mxCell>
        <mxCell id="ArILgMwtwmy9WLDL9m9M-87" value="" style="endArrow=none;html=1;rounded=0;exitX=1;exitY=0.5;exitDx=0;exitDy=0;entryX=0;entryY=0.5;entryDx=0;entryDy=0;" edge="1" parent="1" source="ArILgMwtwmy9WLDL9m9M-86" target="ArILgMwtwmy9WLDL9m9M-6">
          <mxGeometry relative="1" as="geometry">
            <mxPoint x="570" y="540" as="sourcePoint" />
            <mxPoint x="730" y="540" as="targetPoint" />
          </mxGeometry>
        </mxCell>
        <mxCell id="ArILgMwtwmy9WLDL9m9M-88" value="" style="endArrow=none;html=1;rounded=0;entryX=0;entryY=0.5;entryDx=0;entryDy=0;exitX=1;exitY=0;exitDx=0;exitDy=0;" edge="1" parent="1" source="ArILgMwtwmy9WLDL9m9M-6" target="ArILgMwtwmy9WLDL9m9M-81">
          <mxGeometry relative="1" as="geometry">
            <mxPoint x="570" y="540" as="sourcePoint" />
            <mxPoint x="730" y="540" as="targetPoint" />
          </mxGeometry>
        </mxCell>
        <mxCell id="ArILgMwtwmy9WLDL9m9M-89" value="" style="endArrow=none;html=1;rounded=0;entryX=0;entryY=0.5;entryDx=0;entryDy=0;exitX=1;exitY=0.5;exitDx=0;exitDy=0;" edge="1" parent="1" source="ArILgMwtwmy9WLDL9m9M-6" target="ArILgMwtwmy9WLDL9m9M-83">
          <mxGeometry relative="1" as="geometry">
            <mxPoint x="570" y="540" as="sourcePoint" />
            <mxPoint x="730" y="540" as="targetPoint" />
          </mxGeometry>
        </mxCell>
        <mxCell id="ArILgMwtwmy9WLDL9m9M-90" value="" style="endArrow=none;html=1;rounded=0;entryX=0;entryY=0.5;entryDx=0;entryDy=0;exitX=1;exitY=1;exitDx=0;exitDy=0;" edge="1" parent="1" source="ArILgMwtwmy9WLDL9m9M-6" target="ArILgMwtwmy9WLDL9m9M-84">
          <mxGeometry relative="1" as="geometry">
            <mxPoint x="570" y="540" as="sourcePoint" />
            <mxPoint x="730" y="540" as="targetPoint" />
          </mxGeometry>
        </mxCell>
        <mxCell id="ArILgMwtwmy9WLDL9m9M-91" value="Acurácia" style="ellipse;whiteSpace=wrap;html=1;align=center;" vertex="1" parent="1">
          <mxGeometry x="880" y="550" width="60" height="30" as="geometry" />
        </mxCell>
        <mxCell id="ArILgMwtwmy9WLDL9m9M-92" value="F1-Score" style="ellipse;whiteSpace=wrap;html=1;align=center;" vertex="1" parent="1">
          <mxGeometry x="900" y="585" width="60" height="30" as="geometry" />
        </mxCell>
        <mxCell id="ArILgMwtwmy9WLDL9m9M-93" value="Sensibilidade" style="ellipse;whiteSpace=wrap;html=1;align=center;" vertex="1" parent="1">
          <mxGeometry x="900" y="620" width="80" height="30" as="geometry" />
        </mxCell>
        <mxCell id="ArILgMwtwmy9WLDL9m9M-94" value="Precisão" style="ellipse;whiteSpace=wrap;html=1;align=center;" vertex="1" parent="1">
          <mxGeometry x="880" y="653" width="60" height="30" as="geometry" />
        </mxCell>
        <mxCell id="ArILgMwtwmy9WLDL9m9M-95" value="" style="endArrow=none;html=1;rounded=0;entryX=0;entryY=0.5;entryDx=0;entryDy=0;exitX=0.5;exitY=0;exitDx=0;exitDy=0;" edge="1" parent="1" source="ArILgMwtwmy9WLDL9m9M-83" target="ArILgMwtwmy9WLDL9m9M-91">
          <mxGeometry relative="1" as="geometry">
            <mxPoint x="760" y="620" as="sourcePoint" />
            <mxPoint x="920" y="620" as="targetPoint" />
          </mxGeometry>
        </mxCell>
        <mxCell id="ArILgMwtwmy9WLDL9m9M-96" value="" style="endArrow=none;html=1;rounded=0;exitX=1;exitY=0;exitDx=0;exitDy=0;entryX=0;entryY=0.5;entryDx=0;entryDy=0;" edge="1" parent="1" source="ArILgMwtwmy9WLDL9m9M-83" target="ArILgMwtwmy9WLDL9m9M-92">
          <mxGeometry relative="1" as="geometry">
            <mxPoint x="760" y="620" as="sourcePoint" />
            <mxPoint x="920" y="620" as="targetPoint" />
          </mxGeometry>
        </mxCell>
        <mxCell id="ArILgMwtwmy9WLDL9m9M-97" value="" style="endArrow=none;html=1;rounded=0;exitX=1;exitY=1;exitDx=0;exitDy=0;entryX=0;entryY=0.5;entryDx=0;entryDy=0;" edge="1" parent="1" source="ArILgMwtwmy9WLDL9m9M-83" target="ArILgMwtwmy9WLDL9m9M-93">
          <mxGeometry relative="1" as="geometry">
            <mxPoint x="760" y="620" as="sourcePoint" />
            <mxPoint x="920" y="620" as="targetPoint" />
          </mxGeometry>
        </mxCell>
        <mxCell id="ArILgMwtwmy9WLDL9m9M-98" value="" style="endArrow=none;html=1;rounded=0;exitX=0.5;exitY=1;exitDx=0;exitDy=0;entryX=0;entryY=0.5;entryDx=0;entryDy=0;" edge="1" parent="1" source="ArILgMwtwmy9WLDL9m9M-83" target="ArILgMwtwmy9WLDL9m9M-94">
          <mxGeometry relative="1" as="geometry">
            <mxPoint x="760" y="620" as="sourcePoint" />
            <mxPoint x="920" y="620" as="targetPoint" />
          </mxGeometry>
        </mxCell>
        <mxCell id="ArILgMwtwmy9WLDL9m9M-99" value="" style="endArrow=none;html=1;rounded=0;exitX=0.5;exitY=0;exitDx=0;exitDy=0;entryX=0.25;entryY=1;entryDx=0;entryDy=0;" edge="1" parent="1" source="ArILgMwtwmy9WLDL9m9M-78" target="ArILgMwtwmy9WLDL9m9M-71">
          <mxGeometry relative="1" as="geometry">
            <mxPoint x="655" y="880" as="sourcePoint" />
            <mxPoint x="815" y="880" as="targetPoint" />
          </mxGeometry>
        </mxCell>
        <mxCell id="ArILgMwtwmy9WLDL9m9M-100" value="" style="endArrow=none;html=1;rounded=0;exitX=0.5;exitY=0;exitDx=0;exitDy=0;entryX=0.75;entryY=1;entryDx=0;entryDy=0;" edge="1" parent="1" source="ArILgMwtwmy9WLDL9m9M-77" target="ArILgMwtwmy9WLDL9m9M-71">
          <mxGeometry relative="1" as="geometry">
            <mxPoint x="655" y="880" as="sourcePoint" />
            <mxPoint x="815" y="880" as="targetPoint" />
          </mxGeometry>
        </mxCell>
        <mxCell id="6052EXO_UDTHAHXL64vF-3" value="" style="shape=link;html=1;rounded=0;exitX=0.5;exitY=1;exitDx=0;exitDy=0;" edge="1" parent="1" source="ArILgMwtwmy9WLDL9m9M-6">
          <mxGeometry relative="1" as="geometry">
            <mxPoint x="670" y="680" as="sourcePoint" />
            <mxPoint x="680" y="680" as="targetPoint" />
          </mxGeometry>
        </mxCell>
        <mxCell id="6052EXO_UDTHAHXL64vF-4" value="1&amp;nbsp;" style="resizable=0;html=1;whiteSpace=wrap;align=right;verticalAlign=bottom;" connectable="0" vertex="1" parent="6052EXO_UDTHAHXL64vF-3">
          <mxGeometry x="1" relative="1" as="geometry" />
        </mxCell>
        <mxCell id="FxrSf7IWB4OrmFZMOpZz-54" style="rounded=0;orthogonalLoop=1;jettySize=auto;html=1;exitX=1;exitY=0.5;exitDx=0;exitDy=0;entryX=0;entryY=0.5;entryDx=0;entryDy=0;endArrow=none;endFill=0;" edge="1" parent="1" source="6052EXO_UDTHAHXL64vF-7" target="FxrSf7IWB4OrmFZMOpZz-53">
          <mxGeometry relative="1" as="geometry" />
        </mxCell>
        <mxCell id="6052EXO_UDTHAHXL64vF-7" value="Pessoas" style="whiteSpace=wrap;html=1;align=center;" vertex="1" parent="1">
          <mxGeometry x="434" y="146.25" width="100" height="40" as="geometry" />
        </mxCell>
        <mxCell id="6052EXO_UDTHAHXL64vF-8" value="d" style="ellipse;whiteSpace=wrap;html=1;aspect=fixed;" vertex="1" parent="1">
          <mxGeometry x="469" y="261.25" width="30" height="30" as="geometry" />
        </mxCell>
        <mxCell id="6052EXO_UDTHAHXL64vF-9" value="" style="endArrow=none;html=1;rounded=0;entryX=0.5;entryY=1;entryDx=0;entryDy=0;exitX=0.5;exitY=0;exitDx=0;exitDy=0;shape=link;" edge="1" parent="1" source="6052EXO_UDTHAHXL64vF-8" target="6052EXO_UDTHAHXL64vF-7">
          <mxGeometry relative="1" as="geometry">
            <mxPoint x="454" y="261.25" as="sourcePoint" />
            <mxPoint x="614" y="261.25" as="targetPoint" />
          </mxGeometry>
        </mxCell>
        <mxCell id="6052EXO_UDTHAHXL64vF-10" value="" style="endArrow=none;html=1;rounded=0;entryX=0;entryY=0.5;entryDx=0;entryDy=0;exitX=1;exitY=1;exitDx=0;exitDy=0;" edge="1" parent="1" source="6052EXO_UDTHAHXL64vF-8" target="ArILgMwtwmy9WLDL9m9M-7">
          <mxGeometry relative="1" as="geometry">
            <mxPoint x="560" y="270" as="sourcePoint" />
            <mxPoint x="720" y="270" as="targetPoint" />
          </mxGeometry>
        </mxCell>
        <mxCell id="6052EXO_UDTHAHXL64vF-11" value="" style="endArrow=none;html=1;rounded=0;entryX=1;entryY=0.5;entryDx=0;entryDy=0;exitX=0;exitY=1;exitDx=0;exitDy=0;" edge="1" parent="1" source="6052EXO_UDTHAHXL64vF-8" target="ArILgMwtwmy9WLDL9m9M-12">
          <mxGeometry relative="1" as="geometry">
            <mxPoint x="576" y="316" as="sourcePoint" />
            <mxPoint x="690" y="350" as="targetPoint" />
          </mxGeometry>
        </mxCell>
        <mxCell id="6052EXO_UDTHAHXL64vF-13" value="Senha" style="ellipse;whiteSpace=wrap;html=1;align=center;" vertex="1" parent="1">
          <mxGeometry x="110" y="313" width="60" height="30" as="geometry" />
        </mxCell>
        <mxCell id="6052EXO_UDTHAHXL64vF-14" value="" style="endArrow=none;html=1;rounded=0;exitX=1;exitY=0.5;exitDx=0;exitDy=0;entryX=0;entryY=0.25;entryDx=0;entryDy=0;" edge="1" parent="1" source="6052EXO_UDTHAHXL64vF-13" target="ArILgMwtwmy9WLDL9m9M-12">
          <mxGeometry relative="1" as="geometry">
            <mxPoint x="180" y="360" as="sourcePoint" />
            <mxPoint x="340" y="360" as="targetPoint" />
          </mxGeometry>
        </mxCell>
        <mxCell id="FxrSf7IWB4OrmFZMOpZz-2" value="Data" style="ellipse;whiteSpace=wrap;html=1;align=center;" vertex="1" parent="1">
          <mxGeometry x="740" y="430" width="60" height="30" as="geometry" />
        </mxCell>
        <mxCell id="FxrSf7IWB4OrmFZMOpZz-3" value="raio x" style="ellipse;whiteSpace=wrap;html=1;align=center;" vertex="1" parent="1">
          <mxGeometry x="740" y="500" width="60" height="30" as="geometry" />
        </mxCell>
        <mxCell id="FxrSf7IWB4OrmFZMOpZz-4" style="rounded=0;orthogonalLoop=1;jettySize=auto;html=1;exitX=0;exitY=0.5;exitDx=0;exitDy=0;entryX=0.825;entryY=0.733;entryDx=0;entryDy=0;entryPerimeter=0;endArrow=none;endFill=0;" edge="1" parent="1" source="FxrSf7IWB4OrmFZMOpZz-3" target="ArILgMwtwmy9WLDL9m9M-10">
          <mxGeometry relative="1" as="geometry" />
        </mxCell>
        <mxCell id="FxrSf7IWB4OrmFZMOpZz-5" value="" style="endArrow=none;html=1;rounded=0;exitX=1;exitY=0;exitDx=0;exitDy=0;entryX=0;entryY=0.5;entryDx=0;entryDy=0;" edge="1" parent="1" source="ArILgMwtwmy9WLDL9m9M-10" target="FxrSf7IWB4OrmFZMOpZz-2">
          <mxGeometry relative="1" as="geometry">
            <mxPoint x="660" y="490" as="sourcePoint" />
            <mxPoint x="820" y="490" as="targetPoint" />
          </mxGeometry>
        </mxCell>
        <mxCell id="FxrSf7IWB4OrmFZMOpZz-6" value="CNPJ" style="ellipse;whiteSpace=wrap;html=1;align=center;fontStyle=4;" vertex="1" parent="1">
          <mxGeometry x="102.5" y="210" width="65" height="30" as="geometry" />
        </mxCell>
        <mxCell id="FxrSf7IWB4OrmFZMOpZz-7" value="Nome" style="ellipse;whiteSpace=wrap;html=1;align=center;" vertex="1" parent="1">
          <mxGeometry x="105" y="110" width="60" height="30" as="geometry" />
        </mxCell>
        <mxCell id="FxrSf7IWB4OrmFZMOpZz-9" value="" style="endArrow=none;html=1;rounded=0;exitX=1;exitY=0.5;exitDx=0;exitDy=0;entryX=0;entryY=0.75;entryDx=0;entryDy=0;" edge="1" parent="1" source="FxrSf7IWB4OrmFZMOpZz-6" target="ArILgMwtwmy9WLDL9m9M-1">
          <mxGeometry relative="1" as="geometry">
            <mxPoint x="340" y="120" as="sourcePoint" />
            <mxPoint x="500" y="120" as="targetPoint" />
          </mxGeometry>
        </mxCell>
        <mxCell id="FxrSf7IWB4OrmFZMOpZz-10" value="" style="endArrow=none;html=1;rounded=0;entryX=1;entryY=0.5;entryDx=0;entryDy=0;exitX=0;exitY=0.25;exitDx=0;exitDy=0;" edge="1" parent="1" source="ArILgMwtwmy9WLDL9m9M-1" target="FxrSf7IWB4OrmFZMOpZz-7">
          <mxGeometry relative="1" as="geometry">
            <mxPoint x="280" y="140" as="sourcePoint" />
            <mxPoint x="440" y="140" as="targetPoint" />
          </mxGeometry>
        </mxCell>
        <mxCell id="FxrSf7IWB4OrmFZMOpZz-11" value="Id_clinica" style="ellipse;whiteSpace=wrap;html=1;align=center;fontStyle=4" vertex="1" parent="1">
          <mxGeometry x="90" y="165" width="70" height="25" as="geometry" />
        </mxCell>
        <mxCell id="FxrSf7IWB4OrmFZMOpZz-13" value="" style="endArrow=none;html=1;rounded=0;entryX=1;entryY=0.5;entryDx=0;entryDy=0;exitX=0;exitY=0.5;exitDx=0;exitDy=0;" edge="1" parent="1" source="ArILgMwtwmy9WLDL9m9M-1" target="FxrSf7IWB4OrmFZMOpZz-11">
          <mxGeometry relative="1" as="geometry">
            <mxPoint x="350" y="170" as="sourcePoint" />
            <mxPoint x="510" y="170" as="targetPoint" />
          </mxGeometry>
        </mxCell>
        <mxCell id="FxrSf7IWB4OrmFZMOpZz-14" value="Id_diagnótico" style="ellipse;whiteSpace=wrap;html=1;align=center;fontStyle=4" vertex="1" parent="1">
          <mxGeometry x="775" y="462.5" width="90" height="35" as="geometry" />
        </mxCell>
        <mxCell id="FxrSf7IWB4OrmFZMOpZz-15" value="" style="endArrow=none;html=1;rounded=0;exitX=1;exitY=0.5;exitDx=0;exitDy=0;entryX=0;entryY=0.5;entryDx=0;entryDy=0;" edge="1" parent="1" source="ArILgMwtwmy9WLDL9m9M-10" target="FxrSf7IWB4OrmFZMOpZz-14">
          <mxGeometry relative="1" as="geometry">
            <mxPoint x="650" y="550" as="sourcePoint" />
            <mxPoint x="810" y="550" as="targetPoint" />
          </mxGeometry>
        </mxCell>
        <mxCell id="FxrSf7IWB4OrmFZMOpZz-16" value="Email" style="ellipse;whiteSpace=wrap;html=1;align=center;fontStyle=4" vertex="1" parent="1">
          <mxGeometry x="110" y="355" width="60" height="30" as="geometry" />
        </mxCell>
        <mxCell id="FxrSf7IWB4OrmFZMOpZz-17" value="" style="endArrow=none;html=1;rounded=0;entryX=0;entryY=0.75;entryDx=0;entryDy=0;exitX=1;exitY=0.5;exitDx=0;exitDy=0;" edge="1" parent="1" source="FxrSf7IWB4OrmFZMOpZz-16" target="ArILgMwtwmy9WLDL9m9M-12">
          <mxGeometry relative="1" as="geometry">
            <mxPoint x="200" y="410" as="sourcePoint" />
            <mxPoint x="360" y="410" as="targetPoint" />
          </mxGeometry>
        </mxCell>
        <mxCell id="FxrSf7IWB4OrmFZMOpZz-18" value="Tipo sanguíneo" style="ellipse;whiteSpace=wrap;html=1;align=center;" vertex="1" parent="1">
          <mxGeometry x="760" y="291.25" width="100" height="35" as="geometry" />
        </mxCell>
        <mxCell id="FxrSf7IWB4OrmFZMOpZz-19" value="Detalhes clínicos" style="ellipse;whiteSpace=wrap;html=1;align=center;" vertex="1" parent="1">
          <mxGeometry x="760" y="366.25" width="110" height="30" as="geometry" />
        </mxCell>
        <mxCell id="FxrSf7IWB4OrmFZMOpZz-20" value="Sexo" style="ellipse;whiteSpace=wrap;html=1;align=center;" vertex="1" parent="1">
          <mxGeometry x="775" y="247.5" width="60" height="27" as="geometry" />
        </mxCell>
        <mxCell id="FxrSf7IWB4OrmFZMOpZz-21" value="" style="endArrow=none;html=1;rounded=0;entryX=0;entryY=0.5;entryDx=0;entryDy=0;exitX=1;exitY=0.75;exitDx=0;exitDy=0;" edge="1" parent="1" source="ArILgMwtwmy9WLDL9m9M-7" target="FxrSf7IWB4OrmFZMOpZz-19">
          <mxGeometry relative="1" as="geometry">
            <mxPoint x="640" y="366.25" as="sourcePoint" />
            <mxPoint x="800" y="366.25" as="targetPoint" />
          </mxGeometry>
        </mxCell>
        <mxCell id="FxrSf7IWB4OrmFZMOpZz-22" value="" style="endArrow=none;html=1;rounded=0;entryX=0;entryY=0.5;entryDx=0;entryDy=0;exitX=0.75;exitY=0;exitDx=0;exitDy=0;" edge="1" parent="1" source="ArILgMwtwmy9WLDL9m9M-7" target="FxrSf7IWB4OrmFZMOpZz-20">
          <mxGeometry relative="1" as="geometry">
            <mxPoint x="630" y="346.25" as="sourcePoint" />
            <mxPoint x="590" y="346.25" as="targetPoint" />
          </mxGeometry>
        </mxCell>
        <mxCell id="FxrSf7IWB4OrmFZMOpZz-23" value="" style="endArrow=none;html=1;rounded=0;entryX=0;entryY=0.5;entryDx=0;entryDy=0;exitX=1;exitY=0.25;exitDx=0;exitDy=0;" edge="1" parent="1" source="ArILgMwtwmy9WLDL9m9M-7" target="FxrSf7IWB4OrmFZMOpZz-18">
          <mxGeometry relative="1" as="geometry">
            <mxPoint x="640" y="366.25" as="sourcePoint" />
            <mxPoint x="800" y="366.25" as="targetPoint" />
          </mxGeometry>
        </mxCell>
        <mxCell id="FxrSf7IWB4OrmFZMOpZz-53" value="&lt;u&gt;Id_pessoa&lt;/u&gt;" style="ellipse;whiteSpace=wrap;html=1;align=center;" vertex="1" parent="1">
          <mxGeometry x="580" y="146.25" width="80" height="30" as="geometry" />
        </mxCell>
      </root>
    </mxGraphModel>
  </diagram>
</mxfile>
